<svg xmlns="http://www.w3.org/2000/svg" version="1.1" xmlns:xlink="http://www.w3.org/1999/xlink" xmlns:svgjs="http://svgjs.dev/svgjs" width="100%" height="100%" viewBox="0 0 1000 600"><rect width="1000" height="600" x="0" y="0" fill="#09111f"/><g><rect width="333.3333333333333" height="333.3333333333333" y="199.98627277097773" fill="#ffffff" transform="matrix(0.7031793403961921,0,0,0.703179340396192,0,42.17722645863542)" x="177.76408386230466"/><path d="M190.50800469815408 441.652945864088L190.50800469815408 291.65294310148283L236.43437850718348 291.65294310148283L293.4953330885728 366.9697821470396L293.4953330885728 291.65294310148283L329.79587690740493 291.65294310148283L329.79587690740493 441.652945864088L282.6926774882886 441.652945864088L226.4464483292671 361.87020450333L226.4464483292671 441.652945864088L190.50800469815408 441.652945864088ZM365.9757206636639 441.652945864088L365.9757206636639 291.65294310148283L416.4585218348243 291.65294310148283Q423.0366752450533 291.65294310148283 430.9425293435852 292.13574335177486Q438.8483834421173 292.6185436020669 446.7844125562925 294.0367693372997Q454.750616686111 295.4549950725326 462.173670534351 298.08022143349547Q469.596724382591 300.67527277881516 475.39032738609535 304.8695999532272Q481.1537553739564 309.0337521119959 484.6238821729305 315.15928028757605Q488.0638339562612 321.254633447513 488.0638339562612 329.61311278069365L488.0638339562612 329.61311278069365Q488.0638339562612 334.6221653774735 486.8870083461743 339.54069292732356Q485.7403577517307 344.4893954928169 482.6926811717623 348.6233726359425Q479.67517960743714 352.7573497790679 474.4247268855113 355.8352013746796Q469.17427416358544 358.91305297029135 461.0270199399074 360.1804036273079L461.0270199399074 360.1804036273079Q469.9286495546668 360.7235539088864 476.86890315261473 364.25403073914686Q483.8091567505627 367.8146825850506 488.6069842378397 373.12548533826293Q493.3746367094734 378.43628809147526 495.84898799222015 384.8333914078447Q498.35351429061006 391.26066973985735 498.35351429061006 397.50689797801044L498.35351429061006 397.50689797801044Q498.35351429061006 405.8955523268345 494.97391253856586 413.8014064253665Q491.56413577087835 421.7072605238985 483.56775662541656 427.92331374640844Q475.5412024643116 434.10919195327506 462.3848956438537 437.8810689086815Q449.22858882339597 441.652945864088 429.70535370221194 441.652945864088L429.70535370221194 441.652945864088L365.9757206636639 441.652945864088ZM413.50137030178564 380.5485391865029L413.50137030178564 414.49543178516126L432.6926802508939 414.49543178516126Q441.805534975156 414.49543178516126 446.3317873216438 409.788129344814Q450.8278646524883 405.0506518888235 450.8278646524883 397.50689797801044L450.8278646524883 397.50689797801044Q450.8278646524883 393.0711706784524 449.28893885468244 389.87261902026773Q447.7500130568766 386.70424237772636 443.61603591375115 384.6221662983419Q439.4820587706256 382.5702652346008 432.20988000060186 381.5443147027303Q424.9377012305781 380.5485391865029 413.50137030178564 380.5485391865029L413.50137030178564 380.5485391865029ZM413.50137030178564 353.3910251075762L428.3474779982656 353.3910251075762Q433.32635557940216 353.3910251075762 437.4603327225277 351.9727993723434Q441.59430986565314 350.5243986214673 444.5816364143352 348.2009224169369Q447.53878794737386 345.84727119676324 449.1984138077527 342.7694196011515Q450.8278646524883 339.6915680055398 450.8278646524883 336.40249130042537L450.8278646524883 336.40249130042537Q450.8278646524883 331.33308867235905 448.8061386043904 328.0440119672446Q446.7844125562925 324.7549352621302 442.3486852567345 322.82373426096206Q437.88278294153315 320.92270827543723 430.79165426536906 320.1985078999992Q423.67035057356156 319.44413250891785 413.50137030178564 319.44413250891785L413.50137030178564 319.44413250891785L413.50137030178564 353.3910251075762Z " fill="#09111f" transform="matrix(0.7031793403961921,0,0,0.703179340396192,0,42.17722645863542)"/><path d="M594.43074946372 403.6292150441284L594.43074946372 291.65293617238524L628.715178440343 291.65293617238524L671.3116667417847 347.87759762156463L671.3116667417847 291.65293617238524L698.410331695055 291.65293617238524L698.410331695055 403.6292150441284L663.2473923832886 403.6292150441284L621.2591035446386 344.0707195026098L621.2591035446386 403.6292150441284L594.43074946372 403.6292150441284ZM783.3780492376452 388.89727250095393L783.3780492376452 388.89727250095393Q780.044215145306 395.85777746401345 773.0837101822465 399.7547592070856Q766.1232052191871 403.6292150441284 757.0002132773129 403.6292150441284L757.0002132773129 403.6292150441284Q747.2690218726473 403.6292150441284 740.0156801312066 399.9800182673788Q732.762338389766 396.3533473966585 728.0318981236092 390.4065082049183Q723.2789319514229 384.4596690131782 720.9362377243738 376.7783350571806Q718.5935434973246 369.09700110118285 718.5935434973246 361.0327267426868L718.5935434973246 361.0327267426868Q718.5935434973246 352.6981415118388 721.0038154424617 344.6789189654014Q723.4366132936282 336.63717051293463 728.1445276537557 330.26233910663746Q732.8524420138833 323.8875077003403 739.8129469769428 319.96800005123885Q746.7959778460316 316.0484924021373 755.8964438818764 316.0484924021373L755.8964438818764 316.0484924021373Q761.7531794494992 316.0484924021373 766.3935160915388 317.3775208578671Q771.0338527335784 318.72907521962634 774.5929458862108 321.2294507888806Q778.1520390388432 323.729826358135 780.7650441382442 327.1762899806208Q783.3780492376452 330.6227536031065 785.270225344108 334.8801498426477L785.270225344108 334.8801498426477Q785.270225344108 334.1818467557389 785.1125440019027 331.95178205883633Q784.9548626596975 329.74424326796316 784.6845517873456 327.13123816856216Q784.4142409149938 324.51823306916117 784.0988782305833 322.01785749990677Q783.7835155461729 319.5174819306525 783.4456269557331 318.18845347492265L783.4456269557331 318.18845347492265L817.6624782142682 318.18845347492265L817.6624782142682 385.24807572420434Q817.6624782142682 399.59707786488036 814.1484368736944 410.1617277926308Q810.6118696270914 420.72637772038127 804.0568309725597 427.7544604015287Q797.4792664119987 434.7600171766468 787.9282822555675 438.2064807991326Q778.3772980991364 441.6529444216184 766.4385679035975 441.6529444216184L766.4385679035975 441.6529444216184Q761.5954981072939 441.6529444216184 757.8336718003977 441.4051594552958Q754.0718454935015 441.15737448897335 750.6704336830744 440.6843304623576Q747.2690218726473 440.21128643574195 743.8225582501616 439.51298334883313Q740.3760946276757 438.7921543558949 736.2538538243105 437.84606630266353L736.2538538243105 437.84606630266353L738.6415998634183 417.8881135606871Q740.8491386542914 418.5188389295081 743.6648769079563 419.08198658024105Q746.4806151616211 419.62260832494474 749.5216124755791 420.0506005395017Q752.5626097895372 420.5011186600881 755.7387625396711 420.7714295324399Q758.9149152898051 421.04174040479177 761.7531794494992 421.04174040479177L761.7531794494992 421.04174040479177Q768.5785289763828 421.04174040479177 772.8133993098947 418.4287353053908Q777.0482696434066 415.8157302059898 779.3684379644264 411.4006526242433Q781.7111321914756 406.9630491364676 782.5445907145604 401.128839474874Q783.3780492376452 395.31715571930977 783.3780492376452 388.89727250095393ZM750.5127523408692 361.10030446077474L750.5127523408692 361.10030446077474Q750.5127523408692 367.5877653972185 751.9318844207163 371.9577911669063Q753.3735424065926 376.30529103056483 755.6937107276125 378.9633479420245Q758.0364049546616 381.621404853484 761.0098245505317 382.7702260609793Q763.9832441464017 383.9190472684745 767.0692932724185 383.9190472684745L767.0692932724185 383.9190472684745Q770.1553423984351 383.9190472684745 773.0837101822465 382.7702260609793Q776.012077966058 381.621404853484 778.3097203810485 378.9633479420245Q780.607362796039 376.30529103056483 781.9814430638273 371.91273935484764Q783.3780492376452 367.5201876791306 783.3780492376452 361.0327267426868L783.3780492376452 361.0327267426868Q783.3780492376452 354.61284352433097 781.9814430638273 350.2202918486138Q780.607362796039 345.8277401728966 778.3097203810485 343.1246314493784Q776.012077966058 340.4440486318895 773.1287619943051 339.2952274243943Q770.222920116523 338.146406216899 767.1368709905064 338.146406216899L767.1368709905064 338.146406216899Q764.0508218644898 338.146406216899 761.0774022686196 339.2952274243943Q758.1039826727496 340.4440486318895 755.7387625396711 343.1246314493784Q753.3735424065926 345.8277401728966 751.9318844207163 350.2202918486138Q750.5127523408692 354.61284352433097 750.5127523408692 361.10030446077474ZM921.5744827275153 377.72442311041186L921.5744827275153 400.22780323370125Q914.1184078318108 402.683126990897 905.4909858225817 404.30499222500794Q896.8635638133528 405.9268574591189 887.5153128111855 405.9268574591189L887.5153128111855 405.9268574591189Q877.2885514738748 405.9268574591189 868.0304040958248 403.2237487356007Q858.7722567177748 400.54316591811175 851.721648130598 394.8441116926941Q844.6710395434213 389.1450574672765 840.5037469279973 380.3824800218715Q836.3589802186027 371.6424284824959 836.3589802186027 359.52349103872245L836.3589802186027 359.52349103872245Q836.3589802186027 352.63056379375087 838.498941291388 346.72877641406944Q840.6389023641733 340.8269890343879 844.3106250469523 336.00644514411374Q848.0048736357604 331.1633753478102 852.9380470561812 327.44660085297255Q857.8937463826314 323.729826358135 863.5702747020197 321.18439897682197Q869.2242771153786 318.6614975015383 875.2386940252068 317.35499495183785Q881.2531109350348 316.0484924021373 887.0422687845697 316.0484924021373L887.0422687845697 316.0484924021373Q896.1427348204145 316.0484924021373 903.1257656895034 318.0532980387467Q910.0862706525628 320.08062958138544 914.7266072946024 323.4820413918126Q919.3444180306128 326.8834532022396 921.7321640697205 331.41116031413264Q924.097384202799 335.9163415199964 924.097384202799 340.98467037659316L924.097384202799 340.98467037659316Q924.097384202799 347.1567686286264 922.0024749420725 351.52679439831434Q919.9075656813458 355.87429426197275 916.3709984347427 358.8477138578429Q912.856957094169 361.82113345371295 908.2166204521293 363.5105764059118Q903.5988097161189 365.2225452641401 898.4403772354051 366.1235815053128Q893.3044706607204 367.0471436525148 887.9433050257426 367.272402712808Q882.604665296794 367.5201876791306 877.7841214065198 367.5201876791306L877.7841214065198 367.5201876791306Q876.1172043603502 367.5201876791306 874.5629168443272 367.4751358670719Q873.0311552343335 367.43008405501325 871.5219195303691 367.43008405501325L871.5219195303691 367.43008405501325Q872.1526448991901 371.9577911669063 874.0222950996235 375.04384029292294Q875.8694193940277 378.1298894189397 878.6851576476924 380.067117337461Q881.5008959013574 382.00434525598246 885.1726185841364 382.83780377906726Q888.8668671729446 383.67126230215206 893.0566856943979 383.67126230215206L893.0566856943979 383.67126230215206Q896.2328384445318 383.67126230215206 899.8369834092227 383.1982182755363Q903.4411283739138 382.72517424892067 907.1128510566928 381.89171572583587Q910.807099645501 381.05825720275107 914.4788223282799 379.9995396193731Q918.1730709170881 378.9182961299658 921.5744827275153 377.72442311041186L921.5744827275153 377.72442311041186ZM870.801090537431 355.24356889315186L870.801090537431 355.24356889315186Q872.7157925499231 355.15346526903454 875.6666862397639 354.9957839268294Q878.6401058356339 354.83810258462415 881.9739399279731 354.4551621821257Q885.3077740203123 354.049695873598 888.6190822066221 353.3513927866891Q891.9529162989613 352.63056379375087 894.6334991164501 351.52679439831434Q897.3366078399683 350.4004990968483 899.0035248861379 348.7561079567081Q900.6704419323075 347.0891909105385 900.6704419323075 344.7014448714307L900.6704419323075 344.7014448714307Q900.6704419323075 340.66930769218266 897.449237370115 338.2590357470456Q894.2505587139517 335.8487638019085 888.5515044885342 335.8487638019085L888.5515044885342 335.8487638019085Q885.9384993891331 335.8487638019085 882.9200279812044 336.592118700876Q879.9015565732757 337.33547359984345 877.2885514738748 339.4754346726288Q874.6755463744737 341.61539574541405 872.8734738921282 345.4222738643689Q871.0488755037535 349.22915198332373 870.801090537431 355.24356889315186ZM946.1952980175606 403.6292150441284L946.1952980175606 291.65293617238524L983.9036647106402 291.65293617238524Q988.7917863190023 291.65293617238524 994.6935736986837 292.0133506688543Q1000.5953610783653 292.3737651653234 1006.5422002701055 293.4324827487014Q1012.4890394618456 294.49120033207936 1018.0304123450579 296.45095415663013Q1023.5717852282703 298.38818207515146 1027.8742332798702 301.51928301322675Q1032.1992072374996 304.6278580452728 1034.767160524842 309.2006169692245Q1037.3576397182137 313.7508499871468 1037.3576397182137 319.9905259572681L1037.3576397182137 319.9905259572681Q1037.3576397182137 323.729826358135 1036.47912938307 327.401549040914Q1035.6006190479266 331.09579762972226 1033.3480284449947 334.1818467557389Q1031.095437842063 337.2678958817555 1027.1759301929615 339.565538296746Q1023.2564225438599 341.8631807117365 1017.1519020099145 342.8092687649679L1017.1519020099145 342.8092687649679Q1023.7970442885636 343.2147350734957 1029.0005285813363 345.850266078926Q1034.1814869680798 348.5083229903855 1037.740580120712 352.4728824515456Q1041.299673273344 356.4374419127057 1043.1693234737777 361.21293399092133Q1045.0389736742113 366.0109519751662 1045.0389736742113 370.67381452323514L1045.0389736742113 370.67381452323514Q1045.0389736742113 376.9360163993857 1042.493546292898 382.83780377906726Q1039.9706448176144 388.7395911587488 1033.9787538138157 393.37992780078844Q1028.009388716046 397.9977385367987 1018.1880936872632 400.8134767904636Q1008.3667986584803 403.6292150441284 993.7925374575111 403.6292150441284L993.7925374575111 403.6292150441284L946.1952980175606 403.6292150441284ZM981.6736000137375 358.0142553347581L981.6736000137375 383.35589961774156L996.0000762483843 383.35589961774156Q1002.8254257752678 383.35589961774156 1006.1817857736364 379.84185827716783Q1009.5606716780342 376.30529103056483 1009.5606716780342 370.67381452323514L1009.5606716780342 370.67381452323514Q1009.5606716780342 367.3625063369253 1008.4118504705389 364.9747602978175Q1007.2630292630436 362.6095401647391 1004.1769801370269 361.0552526487161Q1001.0684051049809 359.52349103872245 995.6621876579445 358.7576102337256Q990.2334443048787 358.0142553347581 981.6736000137375 358.0142553347581L981.6736000137375 358.0142553347581ZM981.6736000137375 337.7409399083713L992.7563457801623 337.7409399083713Q996.4731202749999 337.7409399083713 999.581695307046 336.6822223249933Q1002.6677444330626 335.6009788355859 1004.8752832239359 333.8664840713284Q1007.1053479208384 332.1094634010416 1008.3217468464215 329.8118209860511Q1009.5606716780342 327.5141785710606 1009.5606716780342 325.05885481386485L1009.5606716780342 325.05885481386485Q1009.5606716780342 321.2745026009393 1008.0514359740698 318.81917884374354Q1006.5422002701055 316.3638550865478 1003.2083661777663 314.9221971006714Q999.8970579914564 313.50306502082435 994.5809441685371 312.96244327612067Q989.2873562516473 312.3992956253877 981.6736000137375 312.3992956253877L981.6736000137375 312.3992956253877L981.6736000137375 337.7409399083713ZM1088.356290968591 405.9268574591189L1088.356290968591 405.9268574591189Q1083.2879621119941 405.9268574591189 1078.6476254699546 404.50772537927185Q1074.007288827915 403.06606739339543 1070.4481956752825 400.13769960958405Q1066.8891025226503 397.20933182577255 1064.7941932619237 392.74920243196743Q1062.6992840011972 388.26654713213304 1062.6992840011972 382.1620265981877L1062.6992840011972 382.1620265981877Q1062.6992840011972 376.30529103056483 1064.5914601076597 372.00284297896496Q1066.4836362141227 367.6778690213358 1069.704840776315 364.5918198953191Q1072.9035194324783 361.50577076930244 1077.2284933901074 359.4784392266638Q1081.5309414417075 357.45110768402515 1086.374011238011 356.30228647652984Q1091.1945551282852 355.15346526903454 1096.3079357969405 354.72547305447756Q1101.4213164655957 354.29748083992047 1106.24186035587 354.29748083992047L1106.24186035587 354.29748083992047Q1109.575694448209 354.29748083992047 1112.661743574226 354.4551621821257Q1115.7477927002424 354.61284352433097 1118.4509014237606 354.83810258462415L1118.4509014237606 354.83810258462415Q1118.2932200815553 349.85987735214474 1116.5361994112686 346.5710950718642Q1114.8017046470113 343.28231279158365 1111.9409145812874 341.3450848730622Q1109.1026504215934 339.40785695454076 1105.2957723026389 338.6194502435146Q1101.488894183684 337.8310435324885 1097.2990756622307 337.8310435324885L1097.2990756622307 337.8310435324885Q1093.4246198251876 337.8310435324885 1089.347430833881 338.3266134651335Q1085.2702418425743 338.8447093038078 1081.3732600995022 339.6105901088047Q1077.4988042624595 340.35394500777215 1073.9847629218857 341.2324553429156Q1070.4481956752825 342.0884397720298 1067.7676128577937 342.8092687649679L1067.7676128577937 342.8092687649679L1067.7676128577937 320.6437772321184Q1071.6420686948368 319.76526689697494 1076.1021980886417 318.93180837389014Q1080.584853388476 318.09834985080533 1085.4279231847795 317.46762448198444Q1090.2484670750537 316.83689911316355 1095.2717441195919 316.43143280463573Q1100.29502116413 316.0484924021373 1105.2056686785213 316.0484924021373L1105.2056686785213 316.0484924021373Q1111.3101892124669 316.0484924021373 1117.2119765921484 316.7918473011049Q1123.11376397183 317.55772810610176 1128.3848259826905 319.2922228703593Q1133.655887993551 321.02671763461683 1138.116017387356 323.9550854184282Q1142.5986726871906 326.8834532022396 1145.7973513433535 331.20842715986885Q1149.0185559055462 335.533401117498 1150.8206283878917 341.39013668512086Q1152.6452267762666 347.24687225274374 1152.6452267762666 354.92820620874136L1152.6452267762666 354.92820620874136L1152.6452267762666 403.6292150441284L1120.027714845813 403.6292150441284L1120.027714845813 389.460420151687Q1118.1130128333211 393.3348759887298 1114.7116010228938 396.37587330268775Q1111.3101892124669 399.4393965226751 1107.0302670668962 401.57935759546046Q1102.7503449213254 403.7193186682457 1097.9298010310513 404.82308806368235Q1093.1092571407771 405.9268574591189 1088.356290968591 405.9268574591189ZM1101.7366791500062 387.32045907890165L1101.7366791500062 387.32045907890165Q1103.9442179408793 387.32045907890165 1106.8500598186615 386.08153424728914Q1109.7333757904144 384.8651353217059 1112.3013290777567 382.31970794039296Q1114.869282365099 379.7968064651093 1116.648828941415 375.9223506280664Q1118.4509014237606 372.02536888499424 1118.4509014237606 366.6416773439871L1118.4509014237606 366.6416773439871L1115.83789632436 366.6416773439871Q1112.031018205405 366.6416773439871 1108.021406932186 367.43008405501325Q1104.0343215649968 368.2410166720688 1100.7004874726576 369.81783009412106Q1097.3666533803184 371.39464351617335 1095.226692307533 373.69228593116384Q1093.1092571407771 375.98992834615444 1093.1092571407771 379.00839975408303L1093.1092571407771 379.00839975408303Q1093.1092571407771 381.37361988716157 1093.8976638518034 382.95043330921385Q1094.6860705628296 384.5497726372955 1095.9024694884129 385.54091250258546Q1097.141394320025 386.5320523678755 1098.6731559300188 386.91499277037394Q1100.227443446042 387.32045907890165 1101.7366791500062 387.32045907890165ZM1175.6216509261717 403.6292150441284L1175.6216509261717 318.18845347492265L1208.171585138537 318.18845347492265Q1208.0139037963318 320.2383109235906 1207.9238001722147 322.738686492845Q1207.8562224541265 325.2390620620994 1207.8562224541265 327.96469669164696Q1207.8562224541265 330.69033132119444 1207.8562224541265 333.4610177628007Q1207.8562224541265 336.2317042044069 1207.8562224541265 338.77713158571987L1207.8562224541265 338.77713158571987Q1209.433035876179 334.8801498426477 1211.978463257492 330.80296085134114Q1214.5013647327755 326.72577186003446 1217.9478283552612 323.4820413918126Q1221.3942919777473 320.2383109235906 1225.7868436534645 318.143401662864Q1230.1793953291813 316.0484924021373 1235.6531904943058 316.0484924021373L1235.6531904943058 316.0484924021373Q1236.666856265625 316.0484924021373 1237.9057810972377 316.161121932284Q1239.1221800228209 316.2737514624306 1240.3160530423747 316.52153642875305Q1241.5099260619286 316.74679548904624 1242.5686436453066 317.1072099855154Q1243.649887134714 317.46762448198444 1244.348190221623 317.9406685086001L1244.348190221623 317.9406685086001L1241.5775037800167 350.58070634508294Q1238.0184106273841 349.22915198332373 1234.0538511662244 348.5533748024442Q1230.1118176110936 347.87759762156463 1227.183449827282 347.87759762156463L1227.183449827282 347.87759762156463Q1223.1287867420046 347.87759762156463 1220.0877894280466 348.8687374868547Q1217.0467921140885 349.85987735214474 1214.9068310413036 351.436690774197Q1212.7668699685182 353.0360301022787 1211.5279451369056 354.92820620874136Q1210.3115462113224 356.82038231520414 1209.8385021847066 358.644980703579L1209.8385021847066 358.644980703579L1209.8385021847066 403.6292150441284L1175.6216509261717 403.6292150441284Z " fill="#ffffff" transform="matrix(0.7031793403961921,0,0,0.703179340396192,0,42.17722645863542)"/></g></svg>